{
	"asset":{
		"generator":"Khronos glTF Blender I/O v4.5.47",
		"version":"2.0"
	},
	"scene":0,
	"scenes":[
		{
			"name":"Scene",
			"nodes":[
				5
			]
		}
	],
	"nodes":[
		{
			"name":"References"
		},
		{
			"mesh":0,
			"name":"Body"
		},
		{
			"children":[
				1
			],
			"name":"Tank"
		},
		{
			"name":"Wheels"
		},
		{
			"children":[
				3
			],
			"name":"High_mesh"
		},
		{
			"children":[
				0,
				2,
				4
			],
			"name":"Scene Collection"
		}
	],
	"materials":[
		{
			"doubleSided":true,
			"name":"Body",
			"pbrMetallicRoughness":{
				"baseColorTexture":{
					"index":0
				},
				"metallicFactor":0,
				"roughnessFactor":0.5
			}
		}
	],
	"meshes":[
		{
			"name":"Cube",
			"primitives":[
				{
					"attributes":{
						"POSITION":0,
						"NORMAL":1,
						"TEXCOORD_0":2
					},
					"indices":3,
					"material":0
				}
			]
		}
	],
	"textures":[
		{
			"sampler":0,
			"source":0
		}
	],
	"images":[
		{
			"mimeType":"image/png",
			"name":"heroTank_diffuse",
			"uri":"heroTank_diffuse.png"
		}
	],
	"accessors":[
		{
			"bufferView":0,
			"componentType":5126,
			"count":3070,
			"max":[
				2.1048989295959473,
				3.5155537128448486,
				5.052593231201172
			],
			"min":[
				-2.1048989295959473,
				0.07000863552093506,
				-3.4470834732055664
			],
			"type":"VEC3"
		},
		{
			"bufferView":1,
			"componentType":5126,
			"count":3070,
			"type":"VEC3"
		},
		{
			"bufferView":2,
			"componentType":5126,
			"count":3070,
			"type":"VEC2"
		},
		{
			"bufferView":3,
			"componentType":5123,
			"count":9519,
			"type":"SCALAR"
		}
	],
	"bufferViews":[
		{
			"buffer":0,
			"byteLength":36840,
			"byteOffset":0,
			"target":34962
		},
		{
			"buffer":0,
			"byteLength":36840,
			"byteOffset":36840,
			"target":34962
		},
		{
			"buffer":0,
			"byteLength":24560,
			"byteOffset":73680,
			"target":34962
		},
		{
			"buffer":0,
			"byteLength":19038,
			"byteOffset":98240,
			"target":34963
		}
	],
	"samplers":[
		{
			"magFilter":9729,
			"minFilter":9987
		}
	],
	"buffers":[
		{
			"byteLength":117280,
			"uri":"tank_alt.bin"
		}
	]
}
