{
	"asset":{
		"generator":"Khronos glTF Blender I/O v5.0.21",
		"version":"2.0"
	},
	"scene":0,
	"scenes":[
		{
			"name":"Scene",
			"nodes":[
				0,
				1,
				2,
				3,
				4,
				5
			]
		}
	],
	"nodes":[
		{
			"mesh":0,
			"name":"Body"
		},
		{
			"mesh":1,
			"name":"Wheels"
		},
		{
			"name":"Spinnnnn",
			"translation":[
				1.792387843132019,
				0.6137893199920654,
				2.6594398021698
			]
		},
		{
			"mesh":2,
			"name":"Frame"
		},
		{
			"mesh":3,
			"name":"UnderbodyDetail"
		},
		{
			"mesh":4,
			"name":"Interior"
		}
	],
	"meshes":[
		{
			"name":"Cube",
			"primitives":[
				{
					"attributes":{
						"POSITION":0,
						"NORMAL":1,
						"TEXCOORD_0":2
					},
					"indices":3
				},
				{
					"attributes":{
						"POSITION":4,
						"NORMAL":5,
						"TEXCOORD_0":6
					},
					"indices":7
				},
				{
					"attributes":{
						"POSITION":8,
						"NORMAL":9,
						"TEXCOORD_0":10
					},
					"indices":11
				},
				{
					"attributes":{
						"POSITION":12,
						"NORMAL":13,
						"TEXCOORD_0":14
					},
					"indices":15
				}
			]
		},
		{
			"name":"Cube.002",
			"primitives":[
				{
					"attributes":{
						"POSITION":16,
						"NORMAL":17,
						"TEXCOORD_0":18
					},
					"indices":19
				}
			]
		},
		{
			"name":"Cube.004",
			"primitives":[
				{
					"attributes":{
						"POSITION":20,
						"NORMAL":21,
						"TEXCOORD_0":22
					},
					"indices":23
				},
				{
					"attributes":{
						"POSITION":24,
						"NORMAL":25,
						"TEXCOORD_0":26
					},
					"indices":27
				}
			]
		},
		{
			"name":"Cube.005",
			"primitives":[
				{
					"attributes":{
						"POSITION":28,
						"NORMAL":29,
						"TEXCOORD_0":30
					},
					"indices":31
				}
			]
		},
		{
			"name":"Cube.006",
			"primitives":[
				{
					"attributes":{
						"POSITION":32,
						"NORMAL":33,
						"TEXCOORD_0":34
					},
					"indices":35
				}
			]
		}
	],
	"accessors":[
		{
			"bufferView":0,
			"componentType":5126,
			"count":953,
			"max":[
				1.5956175327301025,
				3.870205879211426,
				3.686788320541382
			],
			"min":[
				-1.5956175327301025,
				0.9870095252990723,
				-4.4216132164001465
			],
			"type":"VEC3"
		},
		{
			"bufferView":1,
			"componentType":5126,
			"count":953,
			"type":"VEC3"
		},
		{
			"bufferView":2,
			"componentType":5126,
			"count":953,
			"type":"VEC2"
		},
		{
			"bufferView":3,
			"componentType":5123,
			"count":2994,
			"type":"SCALAR"
		},
		{
			"bufferView":4,
			"componentType":5126,
			"count":373,
			"max":[
				1.9013186693191528,
				4.868093967437744,
				3.510936975479126
			],
			"min":[
				-1.9013186693191528,
				1.402552604675293,
				-5.25368070602417
			],
			"type":"VEC3"
		},
		{
			"bufferView":5,
			"componentType":5126,
			"count":373,
			"type":"VEC3"
		},
		{
			"bufferView":6,
			"componentType":5126,
			"count":373,
			"type":"VEC2"
		},
		{
			"bufferView":7,
			"componentType":5123,
			"count":1524,
			"type":"SCALAR"
		},
		{
			"bufferView":8,
			"componentType":5126,
			"count":293,
			"max":[
				1.9094394445419312,
				4.868093967437744,
				3.5514161586761475
			],
			"min":[
				-1.9094394445419312,
				1.1747649908065796,
				-5.788806915283203
			],
			"type":"VEC3"
		},
		{
			"bufferView":9,
			"componentType":5126,
			"count":293,
			"type":"VEC3"
		},
		{
			"bufferView":10,
			"componentType":5126,
			"count":293,
			"type":"VEC2"
		},
		{
			"bufferView":11,
			"componentType":5123,
			"count":1308,
			"type":"SCALAR"
		},
		{
			"bufferView":12,
			"componentType":5126,
			"count":23,
			"max":[
				0.6608781814575195,
				2.622441291809082,
				3.3595283031463623
			],
			"min":[
				-0.6608781814575195,
				1.2312266826629639,
				3.3595283031463623
			],
			"type":"VEC3"
		},
		{
			"bufferView":13,
			"componentType":5126,
			"count":23,
			"type":"VEC3"
		},
		{
			"bufferView":14,
			"componentType":5126,
			"count":23,
			"type":"VEC2"
		},
		{
			"bufferView":15,
			"componentType":5123,
			"count":72,
			"type":"SCALAR"
		},
		{
			"bufferView":16,
			"componentType":5126,
			"count":1148,
			"max":[
				1.4846346378326416,
				1.2684533596038818,
				3.314103841781616
			],
			"min":[
				-1.4846346378326416,
				-0.04087471961975098,
				-3.314103841781616
			],
			"type":"VEC3"
		},
		{
			"bufferView":17,
			"componentType":5126,
			"count":1148,
			"type":"VEC3"
		},
		{
			"bufferView":18,
			"componentType":5126,
			"count":1148,
			"type":"VEC2"
		},
		{
			"bufferView":19,
			"componentType":5123,
			"count":5760,
			"type":"SCALAR"
		},
		{
			"bufferView":20,
			"componentType":5126,
			"count":1141,
			"max":[
				1.509887933731079,
				1.2530158758163452,
				3.4623124599456787
			],
			"min":[
				-1.509887933731079,
				0.3581879734992981,
				-4.471524715423584
			],
			"type":"VEC3"
		},
		{
			"bufferView":21,
			"componentType":5126,
			"count":1141,
			"type":"VEC3"
		},
		{
			"bufferView":22,
			"componentType":5126,
			"count":1141,
			"type":"VEC2"
		},
		{
			"bufferView":23,
			"componentType":5123,
			"count":3054,
			"type":"SCALAR"
		},
		{
			"bufferView":24,
			"componentType":5126,
			"count":88,
			"max":[
				1.1907871961593628,
				2.3134193420410156,
				3.217966079711914
			],
			"min":[
				-1.1907871961593628,
				2.0265872478485107,
				2.8827877044677734
			],
			"type":"VEC3"
		},
		{
			"bufferView":25,
			"componentType":5126,
			"count":88,
			"type":"VEC3"
		},
		{
			"bufferView":26,
			"componentType":5126,
			"count":88,
			"type":"VEC2"
		},
		{
			"bufferView":27,
			"componentType":5123,
			"count":348,
			"type":"SCALAR"
		},
		{
			"bufferView":28,
			"componentType":5126,
			"count":409,
			"max":[
				1.2830908298492432,
				1.1291488409042358,
				3.8704075813293457
			],
			"min":[
				-1.2830908298492432,
				0.4241422116756439,
				-4.395946502685547
			],
			"type":"VEC3"
		},
		{
			"bufferView":29,
			"componentType":5126,
			"count":409,
			"type":"VEC3"
		},
		{
			"bufferView":30,
			"componentType":5126,
			"count":409,
			"type":"VEC2"
		},
		{
			"bufferView":31,
			"componentType":5123,
			"count":2004,
			"type":"SCALAR"
		},
		{
			"bufferView":32,
			"componentType":5126,
			"count":152,
			"max":[
				1.0158329010009766,
				3.065666437149048,
				2.7755839824676514
			],
			"min":[
				-1.0304474830627441,
				1.4883880615234375,
				0.6555491089820862
			],
			"type":"VEC3"
		},
		{
			"bufferView":33,
			"componentType":5126,
			"count":152,
			"type":"VEC3"
		},
		{
			"bufferView":34,
			"componentType":5126,
			"count":152,
			"type":"VEC2"
		},
		{
			"bufferView":35,
			"componentType":5123,
			"count":576,
			"type":"SCALAR"
		}
	],
	"bufferViews":[
		{
			"buffer":0,
			"byteLength":11436,
			"byteOffset":0,
			"target":34962
		},
		{
			"buffer":0,
			"byteLength":11436,
			"byteOffset":11436,
			"target":34962
		},
		{
			"buffer":0,
			"byteLength":7624,
			"byteOffset":22872,
			"target":34962
		},
		{
			"buffer":0,
			"byteLength":5988,
			"byteOffset":30496,
			"target":34963
		},
		{
			"buffer":0,
			"byteLength":4476,
			"byteOffset":36484,
			"target":34962
		},
		{
			"buffer":0,
			"byteLength":4476,
			"byteOffset":40960,
			"target":34962
		},
		{
			"buffer":0,
			"byteLength":2984,
			"byteOffset":45436,
			"target":34962
		},
		{
			"buffer":0,
			"byteLength":3048,
			"byteOffset":48420,
			"target":34963
		},
		{
			"buffer":0,
			"byteLength":3516,
			"byteOffset":51468,
			"target":34962
		},
		{
			"buffer":0,
			"byteLength":3516,
			"byteOffset":54984,
			"target":34962
		},
		{
			"buffer":0,
			"byteLength":2344,
			"byteOffset":58500,
			"target":34962
		},
		{
			"buffer":0,
			"byteLength":2616,
			"byteOffset":60844,
			"target":34963
		},
		{
			"buffer":0,
			"byteLength":276,
			"byteOffset":63460,
			"target":34962
		},
		{
			"buffer":0,
			"byteLength":276,
			"byteOffset":63736,
			"target":34962
		},
		{
			"buffer":0,
			"byteLength":184,
			"byteOffset":64012,
			"target":34962
		},
		{
			"buffer":0,
			"byteLength":144,
			"byteOffset":64196,
			"target":34963
		},
		{
			"buffer":0,
			"byteLength":13776,
			"byteOffset":64340,
			"target":34962
		},
		{
			"buffer":0,
			"byteLength":13776,
			"byteOffset":78116,
			"target":34962
		},
		{
			"buffer":0,
			"byteLength":9184,
			"byteOffset":91892,
			"target":34962
		},
		{
			"buffer":0,
			"byteLength":11520,
			"byteOffset":101076,
			"target":34963
		},
		{
			"buffer":0,
			"byteLength":13692,
			"byteOffset":112596,
			"target":34962
		},
		{
			"buffer":0,
			"byteLength":13692,
			"byteOffset":126288,
			"target":34962
		},
		{
			"buffer":0,
			"byteLength":9128,
			"byteOffset":139980,
			"target":34962
		},
		{
			"buffer":0,
			"byteLength":6108,
			"byteOffset":149108,
			"target":34963
		},
		{
			"buffer":0,
			"byteLength":1056,
			"byteOffset":155216,
			"target":34962
		},
		{
			"buffer":0,
			"byteLength":1056,
			"byteOffset":156272,
			"target":34962
		},
		{
			"buffer":0,
			"byteLength":704,
			"byteOffset":157328,
			"target":34962
		},
		{
			"buffer":0,
			"byteLength":696,
			"byteOffset":158032,
			"target":34963
		},
		{
			"buffer":0,
			"byteLength":4908,
			"byteOffset":158728,
			"target":34962
		},
		{
			"buffer":0,
			"byteLength":4908,
			"byteOffset":163636,
			"target":34962
		},
		{
			"buffer":0,
			"byteLength":3272,
			"byteOffset":168544,
			"target":34962
		},
		{
			"buffer":0,
			"byteLength":4008,
			"byteOffset":171816,
			"target":34963
		},
		{
			"buffer":0,
			"byteLength":1824,
			"byteOffset":175824,
			"target":34962
		},
		{
			"buffer":0,
			"byteLength":1824,
			"byteOffset":177648,
			"target":34962
		},
		{
			"buffer":0,
			"byteLength":1216,
			"byteOffset":179472,
			"target":34962
		},
		{
			"buffer":0,
			"byteLength":1152,
			"byteOffset":180688,
			"target":34963
		}
	],
	"buffers":[
		{
			"byteLength":181840,
			"uri":"transport-truck.bin"
		}
	]
}
